<?xml version="1.0" encoding="UTF-8"?>
<svg version="1.1" xmlns="http://www.w3.org/2000/svg" width="333" height="66">
<path d="M0 0 C109.89 0 219.78 0 333 0 C333 21.78 333 43.56 333 66 C223.11 66 113.22 66 0 66 C0 44.22 0 22.44 0 0 Z " fill="#FDFDFD" transform="translate(0,0)"/>
<path d="M0 0 C2.87252044 1.38268746 4.60344249 2.8118388 7 5 C7 5.66 7 6.32 7 7 C9.31 5.02 11.62 3.04 14 1 C19.02944991 3.51472495 22.33830989 6.89413697 26.3125 10.8125 C27.06595703 11.52470703 27.81941406 12.23691406 28.59570312 12.97070312 C29.30275391 13.66744141 30.00980469 14.36417969 30.73828125 15.08203125 C31.38837158 15.71343018 32.03846191 16.3448291 32.70825195 16.99536133 C34 19 34 19 33.81542969 21.61816406 C32.77527911 24.65640031 31.38814899 25.88198138 28.9375 27.9375 C28.12539063 28.62585938 27.31328125 29.31421875 26.4765625 30.0234375 C24.29285035 31.76627401 22.077152 33.42740377 19.8125 35.0625 C15.44327213 38.25203634 11.44238786 42.11522428 9 47 C8.34 47 7.68 47 7 47 C6.07517541 45.59563674 5.15337628 44.18919705 4.24609375 42.7734375 C0.64692842 37.65111442 -3.97394478 33.91752838 -9.125 30.4375 C-13.79948009 27.27849062 -17.43425086 24.13149828 -20 19 C-20.56350726 14.38108804 -20.4422879 10.90158688 -18.375 6.6875 C-12.99250944 0.596787 -8.01886868 -1.50274862 0 0 Z " fill="#EC73B2" transform="translate(298,12)"/>
<path d="M0 0 C3.37470504 -0.11689626 6.7488843 -0.18747934 10.125 -0.25 C11.07632813 -0.28351562 12.02765625 -0.31703125 13.0078125 -0.3515625 C19.04042178 -0.43534874 22.37846288 0.03002385 27 4 C28.68997013 5.68997013 28.25202754 7.74863286 28.3125 10.0625 C28.24100851 16.94355608 26.48834809 21.51165191 21.625 26.375 C15.41314314 30.2204352 9.70901184 30.25637254 2.625 30.125 C1.23474609 30.11146484 1.23474609 30.11146484 -0.18359375 30.09765625 C-2.45600077 30.07422937 -4.7278618 30.04142748 -7 30 C-7 27 -7 27 -5.63671875 24.28125 C-3.86481531 20.72898536 -2.82945731 17.33404595 -1.8125 13.5 C-1.46832031 12.2315625 -1.12414062 10.963125 -0.76953125 9.65625 C-0.06320764 6.30031649 0.15273544 3.41284701 0 0 Z " fill="#050505" transform="translate(203,18)"/>
<path d="M0 0 C2.359392 1.4814787 3.96005739 2.54308848 5.6875 4.6875 C6.81974961 10.43035161 5.90255431 15.80773473 3.03125 20.86328125 C0.02781547 24.94061824 -3.49743707 28.08247902 -8.3125 29.6875 C-18.76800453 30.59602675 -18.76800453 30.59602675 -23.5 27.8125 C-26.69161607 24.0706053 -26.71456354 21.14939956 -26.65234375 16.3515625 C-25.78228838 9.53112845 -21.04146136 5.03485027 -15.9609375 0.81640625 C-11.08411282 -2.5234097 -5.22786946 -2.07141997 0 0 Z " fill="#070707" transform="translate(91.3125,18.3125)"/>
<path d="M0 0 C1.00289062 -0.03738281 2.00578125 -0.07476563 3.0390625 -0.11328125 C10.46978092 -0.20197683 10.46978092 -0.20197683 14.4140625 2.71484375 C16.25 5.375 16.25 5.375 16.875 8.3125 C16.03012975 12.45236422 14.21065344 14.41434656 11.25 17.375 C7.9606565 19.48755251 5.36655838 19.59206091 1.5 19.5 C0.51515625 19.48195313 -0.4696875 19.46390625 -1.484375 19.4453125 C-2.23203125 19.42210938 -2.9796875 19.39890625 -3.75 19.375 C-3.75 20.633125 -3.75 21.89125 -3.75 23.1875 C-3.75 25.58333333 -3.75 27.97916667 -3.75 30.375 C-8.7 30.375 -13.65 30.375 -18.75 30.375 C-18.0218013 27.46220518 -17.23623794 24.64452167 -16.33984375 21.78515625 C-16.07236328 20.91826172 -15.80488281 20.05136719 -15.52929688 19.15820312 C-14.96885884 17.34685698 -14.40376354 15.53694515 -13.83398438 13.72851562 C-13.56779297 12.86033203 -13.30160156 11.99214844 -13.02734375 11.09765625 C-12.78234131 10.31140869 -12.53733887 9.52516113 -12.28491211 8.71508789 C-11.71076247 6.20334699 -11.7303774 3.94169179 -11.75 1.375 C-9.32224421 -1.05275579 -3.25552396 0.04533008 0 0 Z " fill="#060606" transform="translate(183.75,17.625)"/>
<path d="M0 0 C4.14581887 -0.02886751 8.29161216 -0.04675327 12.4375 -0.0625 C13.62150391 -0.07087891 14.80550781 -0.07925781 16.02539062 -0.08789062 C17.15009766 -0.09111328 18.27480469 -0.09433594 19.43359375 -0.09765625 C20.47572021 -0.10289307 21.51784668 -0.10812988 22.59155273 -0.11352539 C25 0 25 0 26 1 C25.30232558 7.39534884 25.30232558 7.39534884 24 10 C22.68 10 21.36 10 20 10 C19.79375 9.195625 19.5875 8.39125 19.375 7.5625 C18.694375 6.2940625 18.694375 6.2940625 18 5 C14.94727535 4.10169161 14.94727535 4.10169161 12 4 C11.67 6.31 11.34 8.62 11 11 C14.465 10.505 14.465 10.505 18 10 C17.67 12.64 17.34 15.28 17 18 C15.35 18.33 13.7 18.66 12 19 C11.67 18.34 11.34 17.68 11 17 C10.34 17 9.68 17 9 17 C8.01 19.97 7.02 22.94 6 26 C11.00418944 24.84518705 13.47470049 23.64686156 17 20 C18.32 20 19.64 20 21 20 C20.25 26.625 20.25 26.625 18 30 C15.38623047 30.34057617 15.38623047 30.34057617 12.1171875 30.29296875 C10.95058594 30.28330078 9.78398437 30.27363281 8.58203125 30.26367188 C7.35871094 30.23853516 6.13539063 30.21339844 4.875 30.1875 C3.64394531 30.17396484 2.41289062 30.16042969 1.14453125 30.14648438 C-1.90407843 30.11103543 -4.951825 30.06162079 -8 30 C-7.70109863 29.43394043 -7.40219727 28.86788086 -7.09423828 28.28466797 C-5.22804972 24.38823946 -4.12009631 20.25347723 -2.875 16.125 C-2.59785156 15.23941406 -2.32070312 14.35382812 -2.03515625 13.44140625 C-1.64263672 12.14396484 -1.64263672 12.14396484 -1.2421875 10.8203125 C-1.0035498 10.03930176 -0.76491211 9.25829102 -0.51904297 8.45361328 C0.08732178 5.58721359 0.08404524 2.92149702 0 0 Z " fill="#060606" transform="translate(133,18)"/>
<path d="M0 0 C8.25 0 16.5 0 25 0 C25.98484577 4.92422885 26.03342293 5.81354102 24 10 C21.525 9.505 21.525 9.505 19 9 C18.67 7.68 18.34 6.36 18 5 C15.03 4.505 15.03 4.505 12 4 C11.34 6.97 10.68 9.94 10 13 C10.7425 12.484375 11.485 11.96875 12.25 11.4375 C15 10 15 10 17.171875 10.41015625 C18.07679688 10.70212891 18.07679688 10.70212891 19 11 C18.69078116 12.45903258 18.37751201 13.91720722 18.0625 15.375 C17.88847656 16.18710937 17.71445313 16.99921875 17.53515625 17.8359375 C17 20 17 20 16 22 C14.0625 21.625 14.0625 21.625 12 21 C11.67 20.34 11.34 19.68 11 19 C10.01 18.67 9.02 18.34 8 18 C8 21.96 8 25.92 8 30 C3.05 30 -1.9 30 -7 30 C-7 27 -7 27 -5.63671875 24.28125 C-3.86481531 20.72898536 -2.82945731 17.33404595 -1.8125 13.5 C-1.46832031 12.2315625 -1.12414062 10.963125 -0.76953125 9.65625 C0.20595779 5.64416482 0.20595779 5.64416482 0 0 Z " fill="#070707" transform="translate(237,18)"/>
<path d="M0 0 C4.95 0 9.9 0 15 0 C14.34 1.32 13.68 2.64 13 4 C10.08157181 11.16341464 8.0601681 18.55411327 6 26 C9.37782236 24.79524336 10.9651324 24.03661098 13.5 21.375 C16 19 16 19 18.8125 18.6875 C19.534375 18.790625 20.25625 18.89375 21 19 C20.38793103 26.46724138 20.38793103 26.46724138 18.828125 28.609375 C16.25342919 30.56790429 14.44619428 30.34182022 11.23828125 30.29296875 C10.12001953 30.28330078 9.00175781 30.27363281 7.84960938 30.26367188 C6.68236328 30.23853516 5.51511719 30.21339844 4.3125 30.1875 C3.13365234 30.17396484 1.95480469 30.16042969 0.74023438 30.14648438 C-2.17363411 30.11109326 -5.08658945 30.06171809 -8 30 C-8 29.01 -8 28.02 -8 27 C-7.34 27 -6.68 27 -6 27 C-3.68347387 18.03751784 -1.52319682 9.13918092 0 0 Z " fill="#060606" transform="translate(42,18)"/>
<path d="M0 0 C4.62 0 9.24 0 14 0 C14 0.99 14 1.98 14 3 C14.37837892 8.15820589 14.37837892 8.15820589 16 13 C16.39832031 12.31292969 16.79664062 11.62585937 17.20703125 10.91796875 C17.73683594 10.01691406 18.26664063 9.11585937 18.8125 8.1875 C19.33457031 7.29417969 19.85664062 6.40085937 20.39453125 5.48046875 C21.80562065 3.30031845 22.9755865 1.61213085 25 0 C28.125 -0.25 28.125 -0.25 31 0 C32 1 32 1 32.1875 3.9375 C32 7 32 7 30 9 C29.09378906 8.83628906 28.18757813 8.67257813 27.25390625 8.50390625 C23.95386835 8.63770707 23.95386835 8.63770707 22.46826172 10.85107422 C20.8650249 13.50508464 19.38126141 16.19342185 17.9375 18.9375 C16.94113367 20.80903573 15.92998798 22.67279821 14.90234375 24.52734375 C14.46398193 25.35999756 14.02562012 26.19265137 13.57397461 27.05053711 C12 29 12 29 9.31860352 29.77954102 C8.55346436 29.85229248 7.7883252 29.92504395 7 30 C4.96101824 26.94152736 4.54460067 25.36404762 3.96484375 21.81640625 C3.79533203 20.80642578 3.62582031 19.79644531 3.45117188 18.75585938 C3.28166016 17.70205078 3.11214844 16.64824219 2.9375 15.5625 C2.59365702 13.48026873 2.24865081 11.39822913 1.90234375 9.31640625 C1.75273193 8.39287354 1.60312012 7.46934082 1.44897461 6.51782227 C1.05826354 4.32673836 0.53979865 2.15919458 0 0 Z " fill="#070707" transform="translate(99,18)"/>
<path d="M0 0 C1.93166016 0.01740234 1.93166016 0.01740234 3.90234375 0.03515625 C5.19269531 0.04417969 6.48304687 0.05320312 7.8125 0.0625 C8.81152344 0.07410156 9.81054688 0.08570312 10.83984375 0.09765625 C10.83984375 1.08765625 10.83984375 2.07765625 10.83984375 3.09765625 C10.17984375 3.09765625 9.51984375 3.09765625 8.83984375 3.09765625 C8.64648438 3.88269531 8.453125 4.66773438 8.25390625 5.4765625 C7.99351563 6.52714844 7.733125 7.57773437 7.46484375 8.66015625 C7.05685547 10.30757812 7.05685547 10.30757812 6.640625 11.98828125 C6.04191794 14.31301695 5.36624085 16.61817084 4.65234375 18.91015625 C3.76087487 22.40745726 3.76797408 25.50417299 3.83984375 29.09765625 C2.83984375 30.09765625 2.83984375 30.09765625 -0.3203125 30.1953125 C-1.60808594 30.18371094 -2.89585938 30.17210938 -4.22265625 30.16015625 C-5.51300781 30.15113281 -6.80335937 30.14210938 -8.1328125 30.1328125 C-9.13183594 30.12121094 -10.13085938 30.10960938 -11.16015625 30.09765625 C-10.44034682 26.91416918 -9.38768882 23.95682634 -8.22265625 20.91015625 C-5.81804355 14.36086566 -3.9406138 8.1230146 -4.16015625 1.09765625 C-3.16015625 0.09765625 -3.16015625 0.09765625 0 0 Z " fill="#050505" transform="translate(18.16015625,17.90234375)"/>
<path d="M0 0 C6.01826738 4.97161218 11.66337352 10.29829243 17 16 C17 16.33 17 16.66 17 17 C11.39 17 5.78 17 0 17 C0 11.39 0 5.78 0 0 Z " fill="#FEFAFC" transform="translate(313,16)"/>
<path d="M0 0 C1.32 0 2.64 0 4 0 C4.7319312 7.4656982 2.84388138 14.53658464 -1 21 C-3.67578125 21.87890625 -3.67578125 21.87890625 -6 22 C-6.65523219 14.95625395 -4.50705231 8.54212554 -2 2 C-1.34 1.34 -0.68 0.68 0 0 Z " fill="#F2F2F2" transform="translate(82,22)"/>
<path d="M0 0 C1.65 0.33 3.3 0.66 5 1 C5.47895712 8.54357458 4.48941041 14.7675615 -0.44921875 20.7578125 C-2 22 -2 22 -5 22 C-4.36684209 16.87475334 -3.31839344 12.03469229 -1.9375 7.0625 C-1.75123047 6.37865234 -1.56496094 5.69480469 -1.37304688 4.99023438 C-0.91910943 3.32579707 -0.46009084 1.66274688 0 0 Z " fill="#F1F1F1" transform="translate(215,22)"/>
<path d="M0 0 C0.99 0.33 1.98 0.66 3 1 C3 1.66 3 2.32 3 3 C4.65 3 6.3 3 8 3 C8 3.66 8 4.32 8 5 C7.34 5 6.68 5 6 5 C5.814375 5.639375 5.62875 6.27875 5.4375 6.9375 C4 9 4 9 0.375 9.75 C-0.73875 9.8325 -1.8525 9.915 -3 10 C-2.69201674 8.51988629 -2.378482 7.04092675 -2.0625 5.5625 C-1.88847656 4.73878906 -1.71445313 3.91507813 -1.53515625 3.06640625 C-1 1 -1 1 0 0 Z " fill="#E2E2E2" transform="translate(142,34)"/>
<path d="M0 0 C3.2586636 1.4264578 5.4024854 3.16704162 7.890625 5.6953125 C8.95410156 6.76845703 8.95410156 6.76845703 10.0390625 7.86328125 C11.13347656 8.98283203 11.13347656 8.98283203 12.25 10.125 C12.99507813 10.87910156 13.74015625 11.63320313 14.5078125 12.41015625 C16.3431342 14.26900772 18.1736191 16.13237005 20 18 C19.34 18.66 18.68 19.32 18 20 C11.66666667 13.66666667 5.33333333 7.33333333 -1 1 C-0.67 0.67 -0.34 0.34 0 0 Z " fill="#ED90C1" transform="translate(312,13)"/>
<path d="M0 0 C1.98 0 3.96 0 6 0 C6.66 1.98 7.32 3.96 8 6 C4.67485327 7.13357275 1.4120992 8.1469752 -2 9 C-1.34 6.03 -0.68 3.06 0 0 Z " fill="#E2E2E2" transform="translate(249,22)"/>
<path d="M0 0 C1.65 0.33 3.3 0.66 5 1 C4.25 8.75 4.25 8.75 2 11 C0.68 11 -0.64 11 -2 11 C-1.40049704 7.31733897 -0.75241109 3.65456815 0 0 Z " fill="#EDEDED" transform="translate(184,22)"/>
</svg>
